<svg width="299" height="87" viewBox="0 0 299 87" fill="none" xmlns="http://www.w3.org/2000/svg">
<path opacity="0.562" fill-rule="evenodd" clip-rule="evenodd" d="M161.5 9.5C165.733 11.7214 170.4 12.8881 175.5 13C176.285 15.9084 176.619 18.7418 176.5 21.5C174.635 22.6662 172.968 22.3329 171.5 20.5C168.101 22.3122 164.434 22.9789 160.5 22.5C160.5 19.8333 160.5 17.1667 160.5 14.5C159.5 14.5 158.5 14.5 157.5 14.5C156.833 25.1667 156.167 25.1667 155.5 14.5C152.838 15.6393 150.171 15.8059 147.5 15C151.956 15.7521 153.289 18.0854 151.5 22C148.018 22.0002 144.684 22.1669 141.5 22.5C141.5 19.1667 141.5 15.8333 141.5 12.5C143.124 12.3601 144.29 13.0267 145 14.5C150.546 12.7357 156.38 11.9024 162.5 12C161.748 11.3292 161.414 10.4959 161.5 9.5ZM162.5 14.5C164.288 14.2148 165.955 14.5481 167.5 15.5C166.667 15.8333 165.833 16.1667 165 16.5C163.624 16.3158 162.791 15.6491 162.5 14.5ZM170.5 14.5C171.5 14.5 172.5 14.5 173.5 14.5C173.5 15.5 173.5 16.5 173.5 17.5C172.5 17.5 171.5 17.5 170.5 17.5C170.5 16.5 170.5 15.5 170.5 14.5ZM146.5 18.5C144.972 18.4827 144.472 17.816 145 16.5C145.717 17.0442 146.217 17.7109 146.5 18.5Z" fill="black"/>
<path opacity="0.534" fill-rule="evenodd" clip-rule="evenodd" d="M116.5 12.5C119.48 12.2411 121.313 13.5744 122 16.5C122.687 13.5744 124.52 12.2411 127.5 12.5C127.5 15.8333 127.5 19.1667 127.5 22.5C126.5 22.5 125.5 22.5 124.5 22.5C124.725 18.9438 123.892 18.6105 122 21.5C120.108 18.6105 119.275 18.9438 119.5 22.5C118.5 22.5 117.5 22.5 116.5 22.5C116.5 19.1667 116.5 15.8333 116.5 12.5Z" fill="black"/>
<path opacity="0.503" fill-rule="evenodd" clip-rule="evenodd" d="M128.5 12.5C129.5 12.5 130.5 12.5 131.5 12.5C131.5 15.8333 131.5 19.1667 131.5 22.5C130.5 22.5 129.5 22.5 128.5 22.5C128.5 19.1667 128.5 15.8333 128.5 12.5Z" fill="black"/>
<path opacity="0.702" fill-rule="evenodd" clip-rule="evenodd" d="M132.5 12.5C135.595 12.6263 137.428 14.293 138 17.5C138.202 15.7444 138.702 14.0777 139.5 12.5C140.487 15.7683 140.82 19.1016 140.5 22.5C137.832 21.9011 135.998 20.2344 135 17.5C134.798 19.2556 134.298 20.9223 133.5 22.5C132.513 19.2317 132.18 15.8984 132.5 12.5Z" fill="black"/>
<path opacity="0.557" fill-rule="evenodd" clip-rule="evenodd" d="M177.5 12.5C180.247 12.1866 182.914 12.52 185.5 13.5C183.5 14.1667 181.5 14.8333 179.5 15.5C181.167 16.1667 182.833 16.8333 184.5 17.5C183.529 18.9621 183.862 20.2954 185.5 21.5C182.914 22.48 180.247 22.8134 177.5 22.5C177.5 19.1667 177.5 15.8333 177.5 12.5Z" fill="black"/>
<path opacity="0.611" fill-rule="evenodd" clip-rule="evenodd" d="M189.5 12.5C191.857 12.3367 194.19 12.5034 196.5 13C200.36 20.3331 198.027 23.4997 189.5 22.5C189.5 19.1667 189.5 15.8333 189.5 12.5ZM191.5 14.5C194.91 14.3838 196.244 16.0504 195.5 19.5C194.167 19.5 192.833 19.5 191.5 19.5C191.5 17.8333 191.5 16.1667 191.5 14.5Z" fill="black"/>
<path opacity="0.543" fill-rule="evenodd" clip-rule="evenodd" d="M199.5 12.5C202.247 12.1866 204.914 12.52 207.5 13.5C205.5 14.1667 203.5 14.8333 201.5 15.5C203.167 16.1667 204.833 16.8333 206.5 17.5C206.291 18.086 205.957 18.586 205.5 19C206.973 19.7096 207.64 20.8762 207.5 22.5C204.833 22.5 202.167 22.5 199.5 22.5C199.5 19.1667 199.5 15.8333 199.5 12.5Z" fill="black"/>
<path opacity="0.584" fill-rule="evenodd" clip-rule="evenodd" d="M211.5 12.5C213.344 14.2789 214.01 16.6122 213.5 19.5C215.167 19.5 216.833 19.5 218.5 19.5C218.446 15.2196 220.446 12.8863 224.5 12.5C225.5 15.8333 226.5 19.1667 227.5 22.5C225.723 22.2137 224.056 21.5471 222.5 20.5C219.021 22.1618 215.354 22.8285 211.5 22.5C211.5 19.1667 211.5 15.8333 211.5 12.5Z" fill="black"/>
<path opacity="0.622" fill-rule="evenodd" clip-rule="evenodd" d="M229.5 12.5C231.5 12.5 233.5 12.5 235.5 12.5C235.665 15.5184 235.498 18.5184 235 21.5C232.8 22.9901 230.966 22.6568 229.5 20.5C230.105 18.5188 231.105 18.1854 232.5 19.5C233.452 17.9547 233.785 16.288 233.5 14.5C231.517 14.8432 230.183 14.1765 229.5 12.5Z" fill="black"/>
<path opacity="0.563" fill-rule="evenodd" clip-rule="evenodd" d="M273.5 13.5C273.189 14.4778 272.522 15.1445 271.5 15.5C269.166 14.1592 267.499 14.8259 266.5 17.5C266.887 18.7199 267.72 19.3865 269 19.5C270.563 18.2779 272.063 18.2779 273.5 19.5C273.5 20.1667 273.5 20.8333 273.5 21.5C270.375 23.1715 267.542 22.8382 265 20.5C264.29 21.9733 263.124 22.6399 261.5 22.5C261.5 19.8333 261.5 17.1667 261.5 14.5C260.5 14.5 259.5 14.5 258.5 14.5C257.833 25.1667 257.167 25.1667 256.5 14.5C253.838 15.6393 251.171 15.8059 248.5 15C252.956 15.7521 254.289 18.0854 252.5 22C249.653 22.9439 247.153 22.4439 245 20.5C242.333 23.1667 239.667 23.1667 237 20.5C236.503 17.854 236.336 15.1873 236.5 12.5C237.5 12.5 238.5 12.5 239.5 12.5C239.5 14.8333 239.5 17.1667 239.5 19.5C240.5 19.5 241.5 19.5 242.5 19.5C242.5 17.1667 242.5 14.8333 242.5 12.5C243.5 12.5 244.5 12.5 245.5 12.5C245.201 14.604 245.534 16.604 246.5 18.5C246.746 16.7805 246.746 14.7805 246.5 12.5C255.681 12.5132 264.681 12.8465 273.5 13.5Z" fill="black"/>
<path opacity="0.492" fill-rule="evenodd" clip-rule="evenodd" d="M273.5 13.5C276.355 12.1968 279.355 12.1968 282.5 13.5C280.5 14.1667 278.5 14.8333 276.5 15.5C278.167 16.1667 279.833 16.8333 281.5 17.5C281.291 18.086 280.957 18.586 280.5 19C281.973 19.7096 282.64 20.8762 282.5 22.5C279.287 22.81 276.287 22.4767 273.5 21.5C274.833 20.8333 274.833 20.1667 273.5 19.5C273.954 17.2589 273.954 15.2589 273.5 13.5Z" fill="black"/>
<path fill-rule="evenodd" clip-rule="evenodd" d="M82.5 21.5C80.901 21.2322 79.5676 21.5655 78.5 22.5C77.0413 22.4326 75.7079 22.7659 74.5 23.5C74.1667 23.5 73.8333 23.5 73.5 23.5C71.2646 23.2053 69.2646 23.5386 67.5 24.5C66.8333 24.5 66.5 24.8333 66.5 25.5C65.8333 25.5 65.1667 25.5 64.5 25.5C65.9418 24.1805 66.6085 22.5138 66.5 20.5C66.7373 19.209 66.404 18.209 65.5 17.5C65.4894 15.9826 64.8228 14.8159 63.5 14C61.5273 13.5045 59.5273 13.3379 57.5 13.5C59.4621 11.9827 61.7954 11.3161 64.5 11.5C69.7483 12.9731 75.0816 13.4731 80.5 13C81.8333 11.6667 81.8333 10.3333 80.5 8.99999C78.1902 8.50334 75.8568 8.33668 73.5 8.49999C73.5 7.49999 73.5 6.49999 73.5 5.49999C83.7995 2.65573 88.2995 6.32239 87 16.5C85.975 18.687 84.475 20.3536 82.5 21.5Z" fill="#282622"/>
<path fill-rule="evenodd" clip-rule="evenodd" d="M57.5 13.5C59.5273 13.3379 61.5273 13.5045 63.5 14C64.8228 14.8159 65.4894 15.9826 65.5 17.5C62.4466 17.0893 59.4466 16.4226 56.5 15.5C55.8165 15.8627 55.1499 16.1961 54.5 16.5C54.5 15.5 54.5 14.5 54.5 13.5C55.5 13.5 56.5 13.5 57.5 13.5Z" fill="#406E36"/>
<path opacity="0.999" fill-rule="evenodd" clip-rule="evenodd" d="M49.5 13.5C46.3695 12.9078 44.0361 13.9078 42.5 16.5C41.2248 19.3962 41.2248 22.3962 42.5 25.5C41.8333 25.5 41.1667 25.5 40.5 25.5C40.5858 24.5041 40.2524 23.6708 39.5 23C37.2884 22.2109 35.2884 22.3775 33.5 23.5C33.1667 23.5 32.8333 23.5 32.5 23.5C31.791 22.596 30.791 22.2627 29.5 22.5C27.7085 22.634 26.0418 22.3007 24.5 21.5C19.6036 17.8009 18.4369 13.1342 21 7.50002C24.922 5.68764 29.0887 5.02097 33.5 5.50002C33.5 6.50002 33.5 7.50002 33.5 8.50002C31.076 8.19246 28.7427 8.52579 26.5 9.50002C25.1667 10.5 25.1667 11.5 26.5 12.5C27.8333 12.8333 29.1667 13.1667 30.5 13.5C34.4634 12.6236 38.4634 11.9569 42.5 11.5C45.2046 11.3161 47.5379 11.9827 49.5 13.5Z" fill="#252320"/>
<path fill-rule="evenodd" clip-rule="evenodd" d="M49.5 13.5C50.4959 13.4142 51.3292 13.7476 52 14.5C52.7796 16.3869 52.6129 18.0536 51.5 19.5C50.7375 18.7321 49.7375 18.2321 48.5 18C50.0362 16.5319 50.3696 15.0319 49.5 13.5Z" fill="#A5713B"/>
<path fill-rule="evenodd" clip-rule="evenodd" d="M65.5 17.5C66.404 18.209 66.7373 19.209 66.5 20.5C65.0915 19.9386 63.5915 19.6052 62 19.5C58.7132 20.7017 56.2132 22.035 54.5 23.5C54.1667 23.5 53.8333 23.5 53.5 23.5C53.5 22.8333 53.5 22.1667 53.5 21.5C53.3653 20.0194 53.6986 18.3527 54.5 16.5C55.1499 16.1961 55.8165 15.8627 56.5 15.5C59.4466 16.4226 62.4466 17.0893 65.5 17.5Z" fill="#9F723B"/>
<path fill-rule="evenodd" clip-rule="evenodd" d="M42.5 16.5C43.8195 17.9418 45.4862 18.6085 47.5 18.5C48.1667 20.8333 48.8333 23.1667 49.5 25.5C47.1667 25.5 44.8333 25.5 42.5 25.5C41.2248 22.3962 41.2248 19.3962 42.5 16.5Z" fill="#B07F44"/>
<path fill-rule="evenodd" clip-rule="evenodd" d="M49.5 13.5C50.3696 15.0319 50.0362 16.5319 48.5 18C49.7375 18.2321 50.7375 18.7321 51.5 19.5C51.8333 20.5 52.5 21.1667 53.5 21.5C53.5 22.1667 53.5 22.8333 53.5 23.5C53.8333 24.8333 54.1667 24.8333 54.5 23.5C56.2132 22.035 58.7132 20.7017 62 19.5C63.5915 19.6052 65.0915 19.9386 66.5 20.5C66.6085 22.5138 65.9418 24.1805 64.5 25.5C61.1667 25.5 57.8333 25.5 54.5 25.5C53.8333 25.5 53.1667 25.5 52.5 25.5C51.5 25.5 50.5 25.5 49.5 25.5C48.8333 23.1667 48.1667 20.8333 47.5 18.5C45.4862 18.6085 43.8195 17.9418 42.5 16.5C44.0361 13.9078 46.3695 12.9078 49.5 13.5Z" fill="#4B763C"/>
<path opacity="0.204" fill-rule="evenodd" clip-rule="evenodd" d="M78.5 22.5C78.5 23.5 78.5 24.5 78.5 25.5C79.8333 25.5 81.1667 25.5 82.5 25.5C79.3444 28.1236 76.6777 27.7903 74.5 24.5C74.5 24.1667 74.5 23.8333 74.5 23.5C75.7079 22.7659 77.0413 22.4326 78.5 22.5Z" fill="#AC3723"/>
<path opacity="0.69" fill-rule="evenodd" clip-rule="evenodd" d="M29.5 22.5C30.791 22.2627 31.791 22.596 32.5 23.5C32.5 23.8333 32.5 24.1667 32.5 24.5C32.3893 25.1174 32.056 25.6174 31.5 26C29.1902 26.4966 26.8568 26.6633 24.5 26.5C25.9187 25.5489 27.5853 25.2155 29.5 25.5C29.5 24.5 29.5 23.5 29.5 22.5Z" fill="#B32F23"/>
<path fill-rule="evenodd" clip-rule="evenodd" d="M40.5 25.5C41.1667 25.5 41.8333 25.5 42.5 25.5C44.8333 25.5 47.1667 25.5 49.5 25.5C50.5 25.5 51.5 25.5 52.5 25.5C52.5 31.1667 52.5 36.8333 52.5 42.5C52.5 42.8333 52.5 43.1667 52.5 43.5C47.5 43.5 42.5 43.5 37.5 43.5C37.5 41.8333 37.5 40.1667 37.5 38.5C37.1773 34.2852 37.1773 29.9518 37.5 25.5C38.5 25.5 39.5 25.5 40.5 25.5Z" fill="#F9F5EB"/>
<path fill-rule="evenodd" clip-rule="evenodd" d="M66.5 25.5C66.5 24.8333 66.8333 24.5 67.5 24.5C68.8734 24.3433 70.2068 24.51 71.5 25C73.305 27.4029 75.6384 29.0695 78.5 30C75.083 30.8756 72.583 29.709 71 26.5C70.4213 30.2027 70.588 33.8694 71.5 37.5C74.1813 37.5379 76.6813 36.8713 79 35.5C79.7648 35.5699 80.2648 35.9033 80.5 36.5C81.0134 39.2092 82.0134 41.7092 83.5 44C83.3166 45.6836 82.6499 45.8502 81.5 44.5C79.0514 43.06 77.3847 41.06 76.5 38.5C75.1667 39.8333 73.8333 39.8333 72.5 38.5C71.8333 38.5 71.1667 38.5 70.5 38.5C70.1667 38.5 69.8333 38.5 69.5 38.5C69.5 34.1667 69.5 29.8333 69.5 25.5C68.5 25.5 67.5 25.5 66.5 25.5Z" fill="#DBC988"/>
<path fill-rule="evenodd" clip-rule="evenodd" d="M52.5 25.5C53.1667 25.5 53.8333 25.5 54.5 25.5C54.5 31.1667 54.5 36.8333 54.5 42.5C53.8333 42.5 53.1667 42.5 52.5 42.5C52.5 36.8333 52.5 31.1667 52.5 25.5Z" fill="#F0BBB8"/>
<path opacity="0.456" fill-rule="evenodd" clip-rule="evenodd" d="M191.5 34.5C185.833 34.6636 185.5 34.9969 190.5 35.5C190.5 36.5 190.5 37.5 190.5 38.5C185.5 39.0031 185.833 39.3364 191.5 39.5C191.5 40.5 191.5 41.5 191.5 42.5C188.606 42.9577 186.106 42.291 184 40.5C181.894 42.291 179.394 42.9577 176.5 42.5C176.5 38.8333 176.5 35.1667 176.5 31.5C177.5 31.5 178.5 31.5 179.5 31.5C179.5 34.1667 179.5 36.8333 179.5 39.5C180.833 39.5 182.167 39.5 183.5 39.5C183.5 36.8333 183.5 34.1667 183.5 31.5C185.592 31.4386 187.092 30.4386 188 28.5C188.75 29.1258 189.584 29.6258 190.5 30C190.167 30.3333 189.833 30.6667 189.5 31C190.973 31.7096 191.64 32.8762 191.5 34.5Z" fill="black"/>
<path fill-rule="evenodd" clip-rule="evenodd" d="M24.5 21.5C26.0418 22.3007 27.7085 22.634 29.5 22.5C29.5 23.5 29.5 24.5 29.5 25.5C27.5853 25.2155 25.9187 25.5489 24.5 26.5C23.9232 28.6516 22.7565 28.985 21 27.5C20.3333 28.1667 20.3333 28.8333 21 29.5C22.6667 30.8333 24.3333 30.8333 26 29.5C28.0955 30.7155 27.9288 31.5488 25.5 32C26.3279 32.9147 27.3279 33.5814 28.5 34C27.0161 37.2992 25.3494 40.4658 23.5 43.5C24.0138 41.4884 24.1805 39.4884 24 37.5C21.6451 36.6513 19.8118 35.1513 18.5 33C18.7355 32.1268 19.0688 31.2935 19.5 30.5C18.2066 28.8974 17.2066 27.2307 16.5 25.5C15.9033 25.2648 15.5699 24.7648 15.5 24C17.602 20.4753 20.602 19.642 24.5 21.5Z" fill="#D7B236"/>
<path fill-rule="evenodd" clip-rule="evenodd" d="M40.5 25.5C39.5 25.5 38.5 25.5 37.5 25.5C37.1773 29.9518 37.1773 34.2852 37.5 38.5C37.1667 38.5 36.8333 38.5 36.5 38.5C34.8958 39.287 34.2291 40.6203 34.5 42.5C32.629 42.1412 31.129 41.1412 30 39.5C29.0041 41.6605 27.5041 43.3272 25.5 44.5C24.0755 46.0311 23.4088 45.6977 23.5 43.5C25.3494 40.4658 27.0161 37.2992 28.5 34C27.3279 33.5814 26.3279 32.9147 25.5 32C27.9288 31.5488 28.0955 30.7155 26 29.5C24.3333 30.8333 22.6667 30.8333 21 29.5C20.3333 28.8333 20.3333 28.1667 21 27.5C22.7565 28.985 23.9232 28.6516 24.5 26.5C26.8568 26.6633 29.1902 26.4966 31.5 26C32.056 25.6174 32.3893 25.1174 32.5 24.5C33.1667 24.5 33.5 24.1667 33.5 23.5C35.2884 22.3775 37.2884 22.2109 39.5 23C40.2524 23.6708 40.5858 24.5041 40.5 25.5ZM33.5 31.5C34.7733 32.0768 34.7733 32.7435 33.5 33.5C32.537 33.0302 32.537 32.3635 33.5 31.5Z" fill="#D0B45A"/>
<path opacity="0.495" fill-rule="evenodd" clip-rule="evenodd" d="M116.5 31.5C121.833 31.5 127.167 31.5 132.5 31.5C132.5 32.5 132.5 33.5 132.5 34.5C131.5 34.5 130.5 34.5 129.5 34.5C128.833 45.1667 128.167 45.1667 127.5 34.5C124.813 34.3359 122.146 34.5026 119.5 35C120.793 35.49 122.127 35.6567 123.5 35.5C123.5 36.5 123.5 37.5 123.5 38.5C118.5 39.0031 118.833 39.3364 124.5 39.5C124.5 40.5 124.5 41.5 124.5 42.5C121.833 42.5 119.167 42.5 116.5 42.5C116.5 38.8333 116.5 35.1667 116.5 31.5Z" fill="black"/>
<path opacity="0.491" fill-rule="evenodd" clip-rule="evenodd" d="M135.5 31.5C138.685 31.0196 141.519 31.6863 144 33.5C146.456 31.6787 149.289 31.012 152.5 31.5C152.5 32.5 152.5 33.5 152.5 34.5C146.833 34.6636 146.5 34.9969 151.5 35.5C151.5 36.5 151.5 37.5 151.5 38.5C146.5 39.0031 146.833 39.3364 152.5 39.5C152.5 40.5 152.5 41.5 152.5 42.5C149.289 42.988 146.456 42.3213 144 40.5C141.435 42.1793 138.602 42.846 135.5 42.5C135.5 38.8333 135.5 35.1667 135.5 31.5ZM138.5 34.5C143.833 36.1667 143.833 37.8333 138.5 39.5C138.5 37.8333 138.5 36.1667 138.5 34.5Z" fill="black"/>
<path opacity="0.487" fill-rule="evenodd" clip-rule="evenodd" d="M156.5 31.5C157.5 31.5 158.5 31.5 159.5 31.5C159.5 34.1667 159.5 36.8333 159.5 39.5C160.978 39.762 162.311 39.4287 163.5 38.5C164.513 35.7971 166.013 33.4638 168 31.5C170.89 34.6141 172.724 38.2807 173.5 42.5C171.325 42.3178 169.325 41.6511 167.5 40.5C164.021 42.1618 160.354 42.8285 156.5 42.5C156.5 38.8333 156.5 35.1667 156.5 31.5Z" fill="black"/>
<path opacity="0.503" fill-rule="evenodd" clip-rule="evenodd" d="M191.5 39.5C191.5 37.8333 191.5 36.1667 191.5 34.5C192.309 33.5313 193.309 32.6979 194.5 32C197.542 32.5229 200.542 32.3562 203.5 31.5C203.336 34.1873 203.503 36.854 204 39.5C205.722 39.0385 207.555 38.8718 209.5 39C205.044 38.2479 203.711 35.9146 205.5 32C206.5 31.8333 207.5 31.6667 208.5 31.5C210.338 32.1123 212.005 32.1123 213.5 31.5C214.48 34.0865 214.813 36.7531 214.5 39.5C215.978 39.762 217.311 39.4287 218.5 38.5C219.513 35.7971 221.013 33.4638 223 31.5C223.772 31.6448 224.439 31.9781 225 32.5C226.467 35.7584 227.633 39.0917 228.5 42.5C226.723 42.2137 225.056 41.5471 223.5 40.5C221.423 41.8916 219.089 42.5583 216.5 42.5C209.712 42.0517 203.046 42.0517 196.5 42.5C194.308 42.2427 192.641 41.2427 191.5 39.5ZM200.5 36.5C199.5 36.5 198.5 36.5 197.5 36.5C197.728 38.3547 197.061 39.1881 195.5 39C194.62 37.6439 194.286 36.1439 194.5 34.5C196.898 34.2594 198.898 34.9261 200.5 36.5Z" fill="black"/>
<path opacity="0.5" fill-rule="evenodd" clip-rule="evenodd" d="M227.5 31.5C230.833 31.5 234.167 31.5 237.5 31.5C237.5 35.1667 237.5 38.8333 237.5 42.5C236.5 42.5 235.5 42.5 234.5 42.5C233.833 31.8333 233.167 31.8333 232.5 42.5C231.5 42.5 230.5 42.5 229.5 42.5C229.619 38.653 228.953 34.9863 227.5 31.5Z" fill="black"/>
<path opacity="0.529" fill-rule="evenodd" clip-rule="evenodd" d="M241.5 31.5C247.555 31.0522 249.721 33.7189 248 39.5C245 43.5 242 43.5 239 39.5C237.837 36.0289 238.67 33.3623 241.5 31.5ZM241.5 34.5C243.716 34.2746 245.383 35.1079 246.5 37C245.383 38.8921 243.716 39.7254 241.5 39.5C241.5 37.8333 241.5 36.1667 241.5 34.5Z" fill="black"/>
<path opacity="0.521" fill-rule="evenodd" clip-rule="evenodd" d="M249.5 31.5C252.168 32.0989 254.002 33.7656 255 36.5C255.494 34.8659 255.66 33.1992 255.5 31.5C256.5 31.5 257.5 31.5 258.5 31.5C258.5 35.1667 258.5 38.8333 258.5 42.5C255.708 42.5479 253.875 41.2146 253 38.5C252.51 39.7932 252.343 41.1266 252.5 42.5C251.5 42.5 250.5 42.5 249.5 42.5C249.5 38.8333 249.5 35.1667 249.5 31.5Z" fill="black"/>
<path fill-rule="evenodd" clip-rule="evenodd" d="M67.5 24.5C69.2646 23.5386 71.2646 23.2053 73.5 23.5C73.5 24.1667 73.8333 24.5 74.5 24.5C76.6777 27.7903 79.3444 28.1236 82.5 25.5C83.7736 26.1894 83.7736 27.0228 82.5 28C83.8333 28.3333 85.1667 28.6667 86.5 29C84.3766 30.1937 82.0432 30.8603 79.5 31C81.8912 31.6914 81.8912 32.6914 79.5 34C81.3588 34.6008 81.6921 35.4341 80.5 36.5C80.2648 35.9033 79.7648 35.5699 79 35.5C76.6813 36.8713 74.1813 37.5379 71.5 37.5C70.588 33.8694 70.4213 30.2027 71 26.5C72.583 29.709 75.083 30.8756 78.5 30C75.6384 29.0695 73.305 27.4029 71.5 25C70.2068 24.51 68.8734 24.3433 67.5 24.5ZM72.5 32.5C73.0768 31.2267 73.7435 31.2267 74.5 32.5C74.0302 33.463 73.3635 33.463 72.5 32.5Z" fill="#D3B550"/>
<path opacity="0.996" fill-rule="evenodd" clip-rule="evenodd" d="M90.5 25.5C90.4208 26.9305 90.7542 28.2638 91.5 29.5C90.9747 30.1924 90.3081 30.6924 89.5 31C91.2176 32.0367 93.051 32.5367 95 32.5C95.2323 34.2834 94.7323 35.9501 93.5 37.5C95.0645 40.5661 96.3978 43.7328 97.5 47C97.3333 47.8333 97.1667 48.6667 97 49.5C94.6912 51.1988 92.8578 53.1988 91.5 55.5C91.1667 52.8333 90.8333 50.1667 90.5 47.5C92.1237 49.1368 93.1237 48.8034 93.5 46.5C92.9076 44.5775 91.9076 42.9108 90.5 41.5C90.5 40.1667 90.5 38.8333 90.5 37.5C87.4017 37.5875 87.0684 37.0875 89.5 36C88.8333 34 88.1667 32 87.5 30C88.8969 28.6897 89.8969 27.1897 90.5 25.5Z" fill="#B49740"/>
<path fill-rule="evenodd" clip-rule="evenodd" d="M39.5 31.5C41.0682 33.9312 42.5682 33.9312 44 31.5C45.1131 32.7111 46.2798 32.7111 47.5 31.5C48.1973 33.3845 49.1973 33.7178 50.5 32.5C51.4656 34.396 51.7989 36.396 51.5 38.5C47.1667 38.5 42.8333 38.5 38.5 38.5C38.298 36.0504 38.6314 33.717 39.5 31.5Z" fill="#EBC339"/>
<path fill-rule="evenodd" clip-rule="evenodd" d="M54.5 25.5C57.8333 25.5 61.1667 25.5 64.5 25.5C65.1667 25.5 65.8333 25.5 66.5 25.5C67.5 25.5 68.5 25.5 69.5 25.5C69.5 29.8333 69.5 34.1667 69.5 38.5C69.5 40.1667 69.5 41.8333 69.5 43.5C64.8333 43.5 60.1667 43.5 55.5 43.5C54.8333 43.5 54.5 43.1667 54.5 42.5C54.5 36.8333 54.5 31.1667 54.5 25.5Z" fill="#E9E8E9"/>
<path fill-rule="evenodd" clip-rule="evenodd" d="M63.5 35.5C64.5 35.8333 65.1667 36.5 65.5 37.5C64.221 38.7152 63.221 38.3818 62.5 36.5C62.5 35.8333 62.8333 35.5 63.5 35.5Z" fill="#C8A83B"/>
<path fill-rule="evenodd" clip-rule="evenodd" d="M60.5 35.5C60.5 35.8333 60.5 36.1667 60.5 36.5C60.3605 38.337 59.6939 38.6704 58.5 37.5C58.8555 36.4777 59.5222 35.811 60.5 35.5Z" fill="#D9B438"/>
<path fill-rule="evenodd" clip-rule="evenodd" d="M65.5 37.5C65.1667 36.5 64.5 35.8333 63.5 35.5C63.5 35.1667 63.5 34.8333 63.5 34.5C64.1667 33.8333 64.8333 33.1667 65.5 32.5C69.0583 31.1294 69.3916 31.796 66.5 34.5C68.0916 36.2249 67.7583 37.2249 65.5 37.5Z" fill="#9DA5B9"/>
<path fill-rule="evenodd" clip-rule="evenodd" d="M61.5 33.5C61.8333 33.5 62.1667 33.5 62.5 33.5C62.5 34.1667 62.8333 34.5 63.5 34.5C63.5 34.8333 63.5 35.1667 63.5 35.5C62.8333 35.5 62.5 35.8333 62.5 36.5C61.8333 36.5 61.1667 36.5 60.5 36.5C60.5 36.1667 60.5 35.8333 60.5 35.5C60.5 35.1667 60.5 34.8333 60.5 34.5C61.1667 34.5 61.5 34.1667 61.5 33.5Z" fill="#302B21"/>
<path fill-rule="evenodd" clip-rule="evenodd" d="M63.5 31.5C64.4916 31.3284 65.1583 31.6618 65.5 32.5C64.8333 33.1667 64.1667 33.8333 63.5 34.5C62.8333 34.5 62.5 34.1667 62.5 33.5C62.8333 32.8333 63.1667 32.1667 63.5 31.5Z" fill="#CDA932"/>
<path fill-rule="evenodd" clip-rule="evenodd" d="M59.5 31.5C60.5 31.8333 61.1667 32.5 61.5 33.5C61.5 34.1667 61.1667 34.5 60.5 34.5C57.7835 33.3218 57.4501 32.3218 59.5 31.5Z" fill="#C6A63F"/>
<path fill-rule="evenodd" clip-rule="evenodd" d="M63.5 31.5C63.1667 32.1667 62.8333 32.8333 62.5 33.5C62.1667 33.5 61.8333 33.5 61.5 33.5C61.1667 32.5 60.5 31.8333 59.5 31.5C58.4376 30.4246 58.4376 29.4246 59.5 28.5C61.0421 29.7468 62.5421 29.7468 64 28.5C64.4696 29.5768 64.3029 30.5768 63.5 31.5Z" fill="#9AA3B8"/>
<path opacity="0.659" fill-rule="evenodd" clip-rule="evenodd" d="M13.5 31.5C14.4814 33.4893 15.4814 35.4893 16.5 37.5C14.7664 40.4708 13.4331 43.6374 12.5 47C12.5572 49.2089 13.5572 50.7089 15.5 51.5C15.5 52.5 15.5 53.5 15.5 54.5C12.4482 52.9441 10.7815 50.4441 10.5 47C10.8684 43.4295 12.2017 40.2629 14.5 37.5C13.5 36.1667 12.5 34.8333 11.5 33.5C11.8555 32.4777 12.5222 31.811 13.5 31.5Z" fill="#BAA356"/>
<path fill-rule="evenodd" clip-rule="evenodd" d="M16.5 25.5C17.2066 27.2307 18.2066 28.8974 19.5 30.5C19.0688 31.2935 18.7355 32.1268 18.5 33C19.8118 35.1513 21.6451 36.6513 24 37.5C24.1805 39.4884 24.0138 41.4884 23.5 43.5C22.7321 44.2625 22.2321 45.2625 22 46.5C21.1376 44.913 20.4709 43.2464 20 41.5C19.7679 42.7375 19.2679 43.7375 18.5 44.5C18.6602 42.8008 18.4935 41.1341 18 39.5C16.3676 41.9334 14.8676 44.4334 13.5 47C13.8333 47.5 14.1667 48 14.5 48.5C15.8518 47.4756 17.1851 46.4756 18.5 45.5C19.2389 45.369 19.9056 45.5357 20.5 46C17.5878 46.8452 16.5878 48.5118 17.5 51C16.9056 51.4643 16.2389 51.631 15.5 51.5C13.5572 50.7089 12.5572 49.2089 12.5 47C13.4331 43.6374 14.7664 40.4708 16.5 37.5C15.4814 35.4893 14.4814 33.4893 13.5 31.5C14.7206 32.0283 15.8873 32.695 17 33.5C16.9167 30.8806 16.75 28.214 16.5 25.5ZM18.5 44.5C18.5 44.8333 18.5 45.1667 18.5 45.5C17.1851 46.4756 15.8518 47.4756 14.5 48.5C14.1667 48 13.8333 47.5 13.5 47C14.8676 44.4334 16.3676 41.9334 18 39.5C18.4935 41.1341 18.6602 42.8008 18.5 44.5Z" fill="#B79731"/>
<path fill-rule="evenodd" clip-rule="evenodd" d="M36.5 38.5C36.8333 38.5 37.1667 38.5 37.5 38.5C37.5 40.1667 37.5 41.8333 37.5 43.5C42.5 43.5 47.5 43.5 52.5 43.5C52.5 43.8333 52.5 44.1667 52.5 44.5C47.3054 44.1795 42.3054 44.5128 37.5 45.5C36.6618 45.1583 36.3284 44.4916 36.5 43.5C36.5 41.8333 36.5 40.1667 36.5 38.5Z" fill="#C08C89"/>
<path fill-rule="evenodd" clip-rule="evenodd" d="M52.5 42.5C53.1667 42.5 53.8333 42.5 54.5 42.5C54.5 43.1667 54.8333 43.5 55.5 43.5C55.1667 44.1667 54.8333 44.8333 54.5 45.5C53.5084 45.6716 52.8417 45.3382 52.5 44.5C52.5 44.1667 52.5 43.8333 52.5 43.5C52.5 43.1667 52.5 42.8333 52.5 42.5Z" fill="#D04032"/>
<path fill-rule="evenodd" clip-rule="evenodd" d="M52.5 44.5C52.8417 45.3382 53.5084 45.6716 54.5 45.5C59.5 45.5 64.5 45.5 69.5 45.5C69.8242 49.5546 69.4909 53.5546 68.5 57.5C67.8933 57.3764 67.56 57.0431 67.5 56.5C67.8333 55.8333 68.1667 55.1667 68.5 54.5C68.477 52.0733 67.977 49.74 67 47.5C65.7083 46.2089 64.5417 46.2089 63.5 47.5C61.8615 46.0864 60.5282 46.4197 59.5 48.5C58.549 47.6744 57.549 47.5078 56.5 48C56.9662 49.2988 56.9662 50.7988 56.5 52.5C55.1991 53.8845 55.1991 55.3845 56.5 57C55.552 57.4828 54.552 57.6495 53.5 57.5C53.7947 59.7354 53.4614 61.7354 52.5 63.5C52.5 60.8333 52.5 58.1667 52.5 55.5C53.2747 51.8184 51.9414 49.3184 48.5 48C51.7423 47.7167 52.0756 46.8834 49.5 45.5C48.1667 46.5 46.8333 47.5 45.5 48.5C44.1667 47.5 42.8333 46.5 41.5 45.5C38.9722 46.4978 38.9722 47.3311 41.5 48C40.3333 49.1667 39.1667 50.3333 38 51.5C37.5357 50.9056 37.369 50.2389 37.5 49.5C37.5 48.1667 37.5 46.8333 37.5 45.5C42.3054 44.5128 47.3054 44.1795 52.5 44.5Z" fill="#EEDEDB"/>
<path fill-rule="evenodd" clip-rule="evenodd" d="M55.5 43.5C60.1667 43.5 64.8333 43.5 69.5 43.5C69.5 44.1667 69.5 44.8333 69.5 45.5C64.5 45.5 59.5 45.5 54.5 45.5C54.8333 44.8333 55.1667 44.1667 55.5 43.5Z" fill="#F3C3BF"/>
<path opacity="0.816" fill-rule="evenodd" clip-rule="evenodd" d="M23.5 43.5C23.4088 45.6977 24.0755 46.0311 25.5 44.5C26.1494 45.6063 26.4827 46.6063 26.5 47.5C30.3809 47.5011 33.0476 45.8345 34.5 42.5C35.1667 42.8333 35.8333 43.1667 36.5 43.5C36.3284 44.4916 36.6618 45.1583 37.5 45.5C37.5 46.8333 37.5 48.1667 37.5 49.5C36.7148 51.3736 36.0482 53.3736 35.5 55.5C33.1497 56.1103 33.483 56.4437 36.5 56.5C36.5 57.1667 36.5 57.8333 36.5 58.5C35.2921 59.2341 33.9587 59.5674 32.5 59.5C31.4208 55.8654 31.4208 52.1987 32.5 48.5C30.1432 48.3367 27.8098 48.5034 25.5 49C27.588 50.2995 28.9214 52.1329 29.5 54.5C28.8333 54.5 28.5 54.8333 28.5 55.5C27.4936 56.9792 27.4936 58.6459 28.5 60.5C27.8773 62.8142 27.544 62.4808 27.5 59.5C24.9315 59.7377 23.2648 61.071 22.5 63.5C22.5 64.1667 22.8333 64.5 23.5 64.5C24.1667 64.5 24.8333 64.5 25.5 64.5C25.8333 64.5 26.1667 64.5 26.5 64.5C25.0536 65.6129 23.3869 65.7796 21.5 65C19.8807 64.7645 18.8807 63.9311 18.5 62.5C17.8713 59.8711 16.2046 58.2044 13.5 57.5C14.6119 56.7348 15.2786 55.7348 15.5 54.5C15.5 53.5 15.5 52.5 15.5 51.5C16.2389 51.631 16.9056 51.4643 17.5 51C16.5878 48.5118 17.5878 46.8452 20.5 46C19.9056 45.5357 19.2389 45.369 18.5 45.5C18.5 45.1667 18.5 44.8333 18.5 44.5C19.2679 43.7375 19.7679 42.7375 20 41.5C20.4709 43.2464 21.1376 44.913 22 46.5C22.2321 45.2625 22.7321 44.2625 23.5 43.5Z" fill="#CEAD3B"/>
<path fill-rule="evenodd" clip-rule="evenodd" d="M90.5 25.5C89.8969 27.1897 88.8969 28.6897 87.5 30C88.1667 32 88.8333 34 89.5 36C87.0684 37.0875 87.4017 37.5875 90.5 37.5C90.5 38.8333 90.5 40.1667 90.5 41.5C89.7784 41.0825 89.2784 40.4158 89 39.5C88.2815 42.4071 88.7815 45.0738 90.5 47.5C90.8333 50.1667 91.1667 52.8333 91.5 55.5C94.2869 57.2049 93.9535 58.3716 90.5 59C89.1772 59.8159 88.5106 60.9826 88.5 62.5C87.7688 64.8892 86.1021 66.2225 83.5 66.5C81.9704 66.3601 80.9704 65.6935 80.5 64.5C83.1667 64.1667 83.1667 63.8333 80.5 63.5C78.8235 62.8166 78.1568 61.4832 78.5 59.5C79.3382 59.1583 79.6716 58.4916 79.5 57.5C79.5 56.8333 79.1667 56.5 78.5 56.5C79.6045 54.8467 79.7712 53.18 79 51.5C80.2547 50.7894 81.4214 49.956 82.5 49C79.854 48.5026 77.1873 48.3359 74.5 48.5C75.3761 51.7989 75.5428 55.1322 75 58.5C73.2435 59.985 72.0768 59.6516 71.5 57.5C71.5 56.8333 71.1667 56.5 70.5 56.5C70.5 55.8333 70.5 55.1667 70.5 54.5C71.8333 54.1667 71.8333 53.8333 70.5 53.5C70.5 52.8333 70.5 52.1667 70.5 51.5C71.8333 50.8333 71.8333 50.1667 70.5 49.5C70.5 48.1667 70.5 46.8333 70.5 45.5C71.3382 45.1583 71.6716 44.4916 71.5 43.5C71.5 43.1667 71.5 42.8333 71.5 42.5C72.4345 41.4324 72.7678 40.099 72.5 38.5C73.8333 39.8333 75.1667 39.8333 76.5 38.5C75.3159 40.4634 74.4826 42.4634 74 44.5C76.0301 45.0475 78.1967 46.0475 80.5 47.5C81.3857 46.675 81.719 45.675 81.5 44.5C82.6499 45.8502 83.3166 45.6836 83.5 44C82.0134 41.7092 81.0134 39.2092 80.5 36.5C81.6921 35.4341 81.3588 34.6008 79.5 34C81.8912 32.6914 81.8912 31.6914 79.5 31C82.0432 30.8603 84.3766 30.1937 86.5 29C85.1667 28.6667 83.8333 28.3333 82.5 28C83.7736 27.0228 83.7736 26.1894 82.5 25.5C81.1667 25.5 79.8333 25.5 78.5 25.5C78.5 24.5 78.5 23.5 78.5 22.5C79.5676 21.5655 80.901 21.2322 82.5 21.5C84.4672 21.7394 86.3005 21.4061 88 20.5C89.3068 21.7717 90.8068 22.7717 92.5 23.5C92.1445 24.5223 91.4778 25.189 90.5 25.5ZM76.5 38.5C77.3847 41.06 79.0514 43.06 81.5 44.5C81.719 45.675 81.3857 46.675 80.5 47.5C78.1967 46.0475 76.0301 45.0475 74 44.5C74.4826 42.4634 75.3159 40.4634 76.5 38.5Z" fill="#CFAC36"/>
<path fill-rule="evenodd" clip-rule="evenodd" d="M68.5 54.5C67.5902 52.9812 66.7568 51.3146 66 49.5C65.2828 50.0442 64.7828 50.7109 64.5 51.5C63.5655 50.4324 63.2322 49.099 63.5 47.5C64.5417 46.2089 65.7083 46.2089 67 47.5C67.977 49.74 68.477 52.0733 68.5 54.5Z" fill="#A3A3A2"/>
<path opacity="0.872" fill-rule="evenodd" clip-rule="evenodd" d="M172.5 50.5C172.5 52.1667 172.5 53.8333 172.5 55.5C153.833 55.5 135.167 55.5 116.5 55.5C116.5 53.8333 116.5 52.1667 116.5 50.5C135.167 50.5 153.833 50.5 172.5 50.5Z" fill="#138757"/>
<path opacity="0.759" fill-rule="evenodd" clip-rule="evenodd" d="M172.5 50.5C190.5 50.5 208.5 50.5 226.5 50.5C226.5 52.1667 226.5 53.8333 226.5 55.5C208.5 55.5 190.5 55.5 172.5 55.5C172.5 53.8333 172.5 52.1667 172.5 50.5Z" fill="#FBD042"/>
<path opacity="0.869" fill-rule="evenodd" clip-rule="evenodd" d="M226.5 50.5C245.167 50.5 263.833 50.5 282.5 50.5C282.5 52.1667 282.5 53.8333 282.5 55.5C263.833 55.5 245.167 55.5 226.5 55.5C226.5 53.8333 226.5 52.1667 226.5 50.5Z" fill="#E92D38"/>
<path fill-rule="evenodd" clip-rule="evenodd" d="M63.5 47.5C63.2322 49.099 63.5655 50.4324 64.5 51.5C63.88 53.9767 62.88 53.9767 61.5 51.5C59.9291 52.3094 58.2624 52.6427 56.5 52.5C56.9662 50.7988 56.9662 49.2988 56.5 48C57.549 47.5078 58.549 47.6744 59.5 48.5C60.5282 46.4197 61.8615 46.0864 63.5 47.5Z" fill="#646362"/>
<path opacity="0.486" fill-rule="evenodd" clip-rule="evenodd" d="M69.5 38.5C69.8333 38.5 70.1667 38.5 70.5 38.5C71.2341 39.7079 71.5674 41.0413 71.5 42.5C71.5 42.8333 71.5 43.1667 71.5 43.5C70.6618 43.8417 70.3284 44.5084 70.5 45.5C70.5 46.8333 70.5 48.1667 70.5 49.5C70.5 50.1667 70.5 50.8333 70.5 51.5C70.5 52.1667 70.5 52.8333 70.5 53.5C70.5 53.8333 70.5 54.1667 70.5 54.5C70.5 55.1667 70.5 55.8333 70.5 56.5C70.5 56.8333 70.5 57.1667 70.5 57.5C70.5 58.8333 70.5 60.1667 70.5 61.5C70.1667 61.5 69.8333 61.5 69.5 61.5C69.5 60.5 69.5 59.5 69.5 58.5C68.5 58.5 67.5 58.5 66.5 58.5C66.5 57.8333 66.5 57.1667 66.5 56.5C66.8333 56.5 67.1667 56.5 67.5 56.5C67.56 57.0431 67.8933 57.3764 68.5 57.5C69.4909 53.5546 69.8242 49.5546 69.5 45.5C69.5 44.8333 69.5 44.1667 69.5 43.5C69.5 41.8333 69.5 40.1667 69.5 38.5Z" fill="#696764"/>
<path fill-rule="evenodd" clip-rule="evenodd" d="M68.5 54.5C68.1667 55.1667 67.8333 55.8333 67.5 56.5C67.1667 56.5 66.8333 56.5 66.5 56.5C65.9232 54.3484 64.7565 54.015 63 55.5C60.3695 55.1408 58.2029 54.1408 56.5 52.5C58.2624 52.6427 59.9291 52.3094 61.5 51.5C62.88 53.9767 63.88 53.9767 64.5 51.5C64.7828 50.7109 65.2828 50.0442 66 49.5C66.7568 51.3146 67.5902 52.9812 68.5 54.5Z" fill="#201E1C"/>
<path fill-rule="evenodd" clip-rule="evenodd" d="M83.5 49.5C85.4488 50.1839 87.1155 51.3506 88.5 53C87.7109 55.3651 86.5442 57.5318 85 59.5C81.0524 56.6082 80.5524 53.2749 83.5 49.5Z" fill="#D2BC5C"/>
<path opacity="0.886" fill-rule="evenodd" clip-rule="evenodd" d="M32.5 59.5C30.7376 58.7377 29.7376 57.4044 29.5 55.5C29.5 55.1667 29.5 54.8333 29.5 54.5C28.9214 52.1329 27.588 50.2995 25.5 49C27.8098 48.5034 30.1432 48.3367 32.5 48.5C31.4208 52.1987 31.4208 55.8654 32.5 59.5Z" fill="#E1D093"/>
<path fill-rule="evenodd" clip-rule="evenodd" d="M52.5 55.5C52.5 58.1667 52.5 60.8333 52.5 63.5C52.1667 63.5 51.8333 63.5 51.5 63.5C47.6877 62.6762 43.6877 62.1762 39.5 62C38.9558 61.2828 38.2891 60.7828 37.5 60.5C37.5 59.8333 37.5 59.1667 37.5 58.5C37.3379 56.4727 37.5045 54.4727 38 52.5C38.3333 53.5 38.6667 54.5 39 55.5C39.7199 53.7448 40.8866 52.9115 42.5 53C41.4464 54.3876 41.2797 55.8876 42 57.5C43.1882 56.4366 43.6882 55.1033 43.5 53.5C44.8333 53.5 46.1667 53.5 47.5 53.5C47.587 59.938 48.4204 59.938 50 53.5C50.7083 54.3805 51.5416 55.0472 52.5 55.5Z" fill="#F0F3EF"/>
<path fill-rule="evenodd" clip-rule="evenodd" d="M52.5 55.5C51.5416 55.0472 50.7083 54.3805 50 53.5C48.4204 59.938 47.587 59.938 47.5 53.5C46.1667 53.5 44.8333 53.5 43.5 53.5C43.6882 55.1033 43.1882 56.4366 42 57.5C41.2797 55.8876 41.4464 54.3876 42.5 53C40.8866 52.9115 39.7199 53.7448 39 55.5C38.6667 54.5 38.3333 53.5 38 52.5C37.5045 54.4727 37.3379 56.4727 37.5 58.5C37.1667 58.5 36.8333 58.5 36.5 58.5C36.5 57.8333 36.5 57.1667 36.5 56.5C36.5 55.8333 36.1667 55.5 35.5 55.5C36.0482 53.3736 36.7148 51.3736 37.5 49.5C37.369 50.2389 37.5357 50.9056 38 51.5C39.1667 50.3333 40.3333 49.1667 41.5 48C38.9722 47.3311 38.9722 46.4978 41.5 45.5C42.8333 46.5 44.1667 47.5 45.5 48.5C46.8333 47.5 48.1667 46.5 49.5 45.5C52.0756 46.8834 51.7423 47.7167 48.5 48C51.9414 49.3184 53.2747 51.8184 52.5 55.5Z" fill="#67885D"/>
<path fill-rule="evenodd" clip-rule="evenodd" d="M56.5 52.5C58.2029 54.1408 60.3695 55.1408 63 55.5C64.7565 54.015 65.9232 54.3484 66.5 56.5C62.9878 55.9455 59.9878 56.6122 57.5 58.5C56.5 58.5 55.5 58.5 54.5 58.5C54.5 60.1667 54.5 61.8333 54.5 63.5C54.1583 64.3382 53.4916 64.6716 52.5 64.5C50.5 64.5 48.5 64.5 46.5 64.5C46.4113 63.3391 48.078 63.0058 51.5 63.5C51.8333 63.5 52.1667 63.5 52.5 63.5C53.4614 61.7354 53.7947 59.7354 53.5 57.5C54.552 57.6495 55.552 57.4828 56.5 57C55.1991 55.3845 55.1991 53.8845 56.5 52.5Z" fill="#716B71"/>
<path fill-rule="evenodd" clip-rule="evenodd" d="M66.5 56.5C66.5 57.1667 66.5 57.8333 66.5 58.5C63.5 58.5 60.5 58.5 57.5 58.5C59.9878 56.6122 62.9878 55.9455 66.5 56.5Z" fill="#1E222E"/>
<path fill-rule="evenodd" clip-rule="evenodd" d="M44.5 55.5C45.6935 55.9704 46.3601 56.9704 46.5 58.5C46.1667 59.5 45.8333 60.5 45.5 61.5C44.5344 59.604 44.2011 57.604 44.5 55.5Z" fill="#578650"/>
<path fill-rule="evenodd" clip-rule="evenodd" d="M57.5 58.5C60.5 58.5 63.5 58.5 66.5 58.5C67.5 58.5 68.5 58.5 69.5 58.5C69.5 59.5 69.5 60.5 69.5 61.5C69.5 62.1667 69.1667 62.5 68.5 62.5C63.737 62.2256 59.0704 62.559 54.5 63.5C54.5 61.8333 54.5 60.1667 54.5 58.5C55.5 58.5 56.5 58.5 57.5 58.5Z" fill="#314F92"/>
<path opacity="0.933" fill-rule="evenodd" clip-rule="evenodd" d="M78.5 56.5C79.1667 56.5 79.5 56.8333 79.5 57.5C79.6716 58.4916 79.3382 59.1583 78.5 59.5C78.1667 58.1667 77.8333 58.1667 77.5 59.5C75.412 60.9395 73.0786 61.6061 70.5 61.5C70.5 60.1667 70.5 58.8333 70.5 57.5C70.8333 57.5 71.1667 57.5 71.5 57.5C72.0768 59.6516 73.2435 59.985 75 58.5C75.5428 55.1322 75.3761 51.7989 74.5 48.5C77.1873 48.3359 79.854 48.5026 82.5 49C81.4214 49.956 80.2547 50.7894 79 51.5C79.7712 53.18 79.6045 54.8467 78.5 56.5Z" fill="#D2BB75"/>
<path opacity="0.339" fill-rule="evenodd" clip-rule="evenodd" d="M28.5 55.5C28.8333 55.5 29.1667 55.5 29.5 55.5C29.7376 57.4044 30.7376 58.7377 32.5 59.5C33.9587 59.5674 35.2921 59.2341 36.5 58.5C36.8333 58.5 37.1667 58.5 37.5 58.5C37.5 59.1667 37.5 59.8333 37.5 60.5C35.5316 61.819 33.5316 61.819 31.5 60.5C29.9617 62.2433 28.9617 64.2433 28.5 66.5C27.8444 67.2778 27.0111 67.9444 26 68.5C23.8649 67.8729 21.6982 67.3729 19.5 67C17.4215 65.7303 17.0882 64.2303 18.5 62.5C18.8807 63.9311 19.8807 64.7645 21.5 65C23.3869 65.7796 25.0536 65.6129 26.5 64.5C27.1826 63.3559 26.8493 63.3559 25.5 64.5C24.8333 64.5 24.1667 64.5 23.5 64.5C22.8333 64.5 22.5 64.1667 22.5 63.5C23.2648 61.071 24.9315 59.7377 27.5 59.5C27.544 62.4808 27.8773 62.8142 28.5 60.5C27.4936 58.6459 27.4936 56.9792 28.5 55.5Z" fill="#BB9D46"/>
<path opacity="0.537" fill-rule="evenodd" clip-rule="evenodd" d="M129.5 61.5C130.873 61.3433 132.207 61.51 133.5 62C132.346 62.9138 132.513 63.7471 134 64.5C137.24 62.9637 140.24 63.297 143 65.5C143.308 64.6919 143.808 64.0253 144.5 63.5C146.5 74.1667 148.5 74.1667 150.5 63.5C151.791 67.0447 151.791 70.5447 150.5 74C146.175 75.424 143.675 73.924 143 69.5C141.599 71.1922 139.766 71.8588 137.5 71.5C137.5 72.5 137.5 73.5 137.5 74.5C133.996 74.0726 130.329 74.0726 126.5 74.5C125.836 69.6068 126.836 65.2735 129.5 61.5ZM133.5 65.5C134.629 67.6282 134.796 69.9615 134 72.5C132.266 71.7511 130.433 71.2511 128.5 71C135.078 70.1146 135.078 68.948 128.5 67.5C130.291 66.8302 131.958 66.1635 133.5 65.5ZM137.5 66.5C140.957 66.6672 141.29 67.6672 138.5 69.5C137.614 68.675 137.281 67.675 137.5 66.5Z" fill="black"/>
<path opacity="0.484" fill-rule="evenodd" clip-rule="evenodd" d="M240.5 61.5C243.47 61.7458 244.803 63.4124 244.5 66.5C238.627 66.5981 238.294 67.5981 243.5 69.5C238.343 70.9867 238.676 71.6534 244.5 71.5C244.5 72.5 244.5 73.5 244.5 74.5C241.833 74.5 239.167 74.5 236.5 74.5C236.5 70.8333 236.5 67.1667 236.5 63.5C238.38 63.7709 239.713 63.1042 240.5 61.5Z" fill="black"/>
<path opacity="0.075" fill-rule="evenodd" clip-rule="evenodd" d="M68.5 62.5C68.5 62.8333 68.5 63.1667 68.5 63.5C66.0504 63.298 63.717 63.6314 61.5 64.5C58.5178 64.1044 55.8511 64.7711 53.5 66.5C52.7025 66.0431 52.3691 65.3764 52.5 64.5C53.4916 64.6716 54.1583 64.3382 54.5 63.5C59.0704 62.559 63.737 62.2256 68.5 62.5Z" fill="#262C44"/>
<path opacity="0.527" fill-rule="evenodd" clip-rule="evenodd" d="M117.5 63.5C119.527 63.3379 121.527 63.5045 123.5 64C124.624 64.8388 125.291 66.0055 125.5 67.5C124.74 69.5965 124.74 71.5965 125.5 73.5C125 73.8333 124.5 74.1667 124 74.5C122.832 73.4911 121.665 72.4911 120.5 71.5C119.614 72.325 119.281 73.325 119.5 74.5C118.5 74.5 117.5 74.5 116.5 74.5C116.244 70.7307 116.577 67.0641 117.5 63.5ZM119.5 66.5C120.5 66.5 121.5 66.5 122.5 66.5C122.5 67.5 122.5 68.5 122.5 69.5C121.5 69.5 120.5 69.5 119.5 69.5C119.5 68.5 119.5 67.5 119.5 66.5Z" fill="black"/>
<path opacity="0.494" fill-rule="evenodd" clip-rule="evenodd" d="M152.5 63.5C155.685 63.0196 158.519 63.6863 161 65.5C161.71 64.0267 162.876 63.3601 164.5 63.5C164.5 66.1667 164.5 68.8333 164.5 71.5C165.833 71.5 167.167 71.5 168.5 71.5C168.5 68.8333 168.5 66.1667 168.5 63.5C169.5 63.5 170.5 63.5 171.5 63.5C171.5 67.1667 171.5 70.8333 171.5 74.5C165.083 73.8833 158.75 73.8833 152.5 74.5C152.5 70.8333 152.5 67.1667 152.5 63.5ZM155.5 66.5C158.797 66.3287 159.131 66.9954 156.5 68.5C155.702 68.0431 155.369 67.3764 155.5 66.5Z" fill="black"/>
<path opacity="0.53" fill-rule="evenodd" clip-rule="evenodd" d="M175.5 63.5C178.099 63.5494 180.266 64.5494 182 66.5C181.766 69.9087 181.932 73.242 182.5 76.5C174.799 76.6378 171.633 72.9711 173 65.5C173.995 64.9341 174.828 64.2674 175.5 63.5ZM175.5 66.5C179.161 66.3501 180.161 67.8501 178.5 71C174.668 71.514 173.668 70.014 175.5 66.5Z" fill="black"/>
<path opacity="0.624" fill-rule="evenodd" clip-rule="evenodd" d="M183.5 63.5C184.933 66.0384 186.266 68.705 187.5 71.5C188.086 71.2907 188.586 70.9574 189 70.5C189.186 68.0995 189.686 65.7662 190.5 63.5C192.024 67.2702 191.691 70.7702 189.5 74C187.765 74.6514 186.098 74.4847 184.5 73.5C183.513 70.2317 183.18 66.8984 183.5 63.5Z" fill="black"/>
<path opacity="0.489" fill-rule="evenodd" clip-rule="evenodd" d="M192.5 63.5C195.167 63.5 197.833 63.5 200.5 63.5C200.5 64.5 200.5 65.5 200.5 66.5C194.627 66.5981 194.294 67.5981 199.5 69.5C194.343 70.9867 194.676 71.6534 200.5 71.5C200.5 72.5 200.5 73.5 200.5 74.5C197.833 74.5 195.167 74.5 192.5 74.5C192.5 70.8333 192.5 67.1667 192.5 63.5Z" fill="black"/>
<path opacity="0.532" fill-rule="evenodd" clip-rule="evenodd" d="M204.5 63.5C213.488 62.7555 215.821 66.2555 211.5 74C209.19 74.4966 206.857 74.6633 204.5 74.5C204.5 70.8333 204.5 67.1667 204.5 63.5ZM207.5 66.5C209.59 66.4501 210.923 67.4501 211.5 69.5C210.68 71.1112 209.346 71.7778 207.5 71.5C207.5 69.8333 207.5 68.1667 207.5 66.5Z" fill="black"/>
<path opacity="0.481" fill-rule="evenodd" clip-rule="evenodd" d="M214.5 63.5C215.5 63.5 216.5 63.5 217.5 63.5C217.5 66.1667 217.5 68.8333 217.5 71.5C218.5 71.5 219.5 71.5 220.5 71.5C220.5 68.8333 220.5 66.1667 220.5 63.5C221.5 63.5 222.5 63.5 223.5 63.5C223.665 66.5184 223.498 69.5184 223 72.5C220.333 75.1667 217.667 75.1667 215 72.5C214.502 69.5184 214.335 66.5184 214.5 63.5Z" fill="black"/>
<path opacity="0.578" fill-rule="evenodd" clip-rule="evenodd" d="M227.5 63.5C229.857 63.3367 232.19 63.5034 234.5 64C235.833 67.3333 235.833 70.6667 234.5 74C232.19 74.4966 229.857 74.6633 227.5 74.5C227.5 70.8333 227.5 67.1667 227.5 63.5ZM230.5 66.5C234.276 66.4692 234.443 67.1359 231 68.5C229.316 68.3166 229.15 67.6499 230.5 66.5Z" fill="black"/>
<path opacity="0.66" fill-rule="evenodd" clip-rule="evenodd" d="M245.5 63.5C248.091 64.2543 249.924 65.921 251 68.5C251.202 66.7444 251.702 65.0777 252.5 63.5C253.833 67.1667 253.833 70.8333 252.5 74.5C250.473 73.3067 248.973 71.64 248 69.5C247.798 71.2556 247.298 72.9223 246.5 74.5C245.511 70.8927 245.177 67.226 245.5 63.5Z" fill="black"/>
<path opacity="0.505" fill-rule="evenodd" clip-rule="evenodd" d="M255.5 63.5C257.045 64.5804 258.545 64.5804 260 63.5C261.689 64.8582 263.022 66.5249 264 68.5C264.494 66.8659 264.66 65.1992 264.5 63.5C265.5 63.5 266.5 63.5 267.5 63.5C267.5 67.1667 267.5 70.8333 267.5 74.5C264.708 74.5479 262.875 73.2146 262 70.5C261.51 71.7932 261.343 73.1266 261.5 74.5C259.5 74.5 257.5 74.5 255.5 74.5C255.5 70.8333 255.5 67.1667 255.5 63.5Z" fill="black"/>
<path opacity="0.01" fill-rule="evenodd" clip-rule="evenodd" d="M28.5 66.5C29.8333 67.1667 29.8333 67.1667 28.5 66.5Z" fill="#FEFF00"/>
<path opacity="0.984" fill-rule="evenodd" clip-rule="evenodd" d="M68.5 63.5C69.791 63.2627 70.791 63.596 71.5 64.5C71.0202 67.6514 69.3536 69.9848 66.5 71.5C65.5 70.8333 64.5 70.1667 63.5 69.5C62.1057 71.5819 62.439 73.2486 64.5 74.5C63.7095 75.4013 62.7095 76.0679 61.5 76.5C61.6399 74.8762 60.9733 73.7096 59.5 73C61.5951 72.4444 61.7618 71.9444 60 71.5C57.3628 72.1006 56.1961 73.7673 56.5 76.5C54.5 76.5 52.5 76.5 50.5 76.5C51.1109 70.7385 52.2775 70.4052 54 75.5C54.7065 73.9194 55.5399 72.4194 56.5 71C56.2716 70.6012 55.9382 70.4346 55.5 70.5C58.0826 69.7761 60.7493 68.9428 63.5 68C62.0267 67.2904 61.3601 66.1238 61.5 64.5C63.717 63.6314 66.0504 63.298 68.5 63.5Z" fill="#DCDBDB"/>
<path opacity="0.188" fill-rule="evenodd" clip-rule="evenodd" d="M77.5 59.5C77.8333 59.5 78.1667 59.5 78.5 59.5C78.1568 61.4832 78.8235 62.8166 80.5 63.5C80.5 63.8333 80.5 64.1667 80.5 64.5C80.9704 65.6935 81.9704 66.3601 83.5 66.5C86.1021 66.2225 87.7688 64.8892 88.5 62.5C89.782 63.7082 89.782 65.0416 88.5 66.5C80.8111 70.597 77.1445 68.2636 77.5 59.5Z" fill="#B0943C"/>
<path opacity="0.455" fill-rule="evenodd" clip-rule="evenodd" d="M37.5 60.5C38.2891 60.7828 38.9558 61.2828 39.5 62C43.6877 62.1762 47.6877 62.6762 51.5 63.5C48.078 63.0058 46.4113 63.3391 46.5 64.5C46.4894 66.0174 45.8228 67.1841 44.5 68C48.0624 69.2608 51.7291 70.0941 55.5 70.5C55.9382 70.4346 56.2716 70.6012 56.5 71C55.5399 72.4194 54.7065 73.9194 54 75.5C52.2775 70.4052 51.1109 70.7385 50.5 76.5C45.4665 76.6008 41.1331 74.9341 37.5 71.5C34.7984 73.22 32.1318 74.8866 29.5 76.5C26.6644 76.7978 26.1644 76.1311 28 74.5C28.3333 74.8333 28.6667 75.1667 29 75.5C30.8046 73.847 32.638 72.1803 34.5 70.5C34.1667 69.5 33.5 68.8333 32.5 68.5C31.4805 69.6872 30.3139 70.6872 29 71.5C28.5357 70.9056 28.369 70.2389 28.5 69.5C31.2558 66.6109 34.5891 64.4442 38.5 63C37.7476 62.3292 37.4142 61.4959 37.5 60.5Z" fill="#B7B5B5"/>
<path fill-rule="evenodd" clip-rule="evenodd" d="M18.5 74.5C17.009 74.9014 15.3423 75.068 13.5 75C12.3266 78.1103 12.8266 78.277 15 75.5C15.6309 76.8719 16.2975 78.2052 17 79.5C18.7043 79.026 20.5377 78.8593 22.5 79C21.3044 78.3457 21.3044 77.8457 22.5 77.5C23.3857 78.325 23.719 79.325 23.5 80.5C20.1501 80.665 16.8168 80.4983 13.5 80C9.75928 76.972 9.75928 73.8053 13.5 70.5C16.5075 68.9 18.8408 69.5667 20.5 72.5C20.1445 73.5223 19.4778 74.189 18.5 74.5Z" fill="#CAC8C8"/>
<path opacity="0.424" fill-rule="evenodd" clip-rule="evenodd" d="M29.5 76.5C28.1979 78.8218 26.1979 80.1551 23.5 80.5C23.719 79.325 23.3857 78.325 22.5 77.5C21.3044 77.8457 21.3044 78.3457 22.5 79C20.5377 78.8593 18.7043 79.026 17 79.5C16.2975 78.2052 15.6309 76.8719 15 75.5C12.8266 78.277 12.3266 78.1103 13.5 75C15.3423 75.068 17.009 74.9014 18.5 74.5C18.56 75.0431 18.8933 75.3764 19.5 75.5C23.0453 74.2337 26.0453 72.2337 28.5 69.5C28.369 70.2389 28.5357 70.9056 29 71.5C30.3139 70.6872 31.4805 69.6872 32.5 68.5C33.5 68.8333 34.1667 69.5 34.5 70.5C32.638 72.1803 30.8046 73.847 29 75.5C28.6667 75.1667 28.3333 74.8333 28 74.5C26.1644 76.1311 26.6644 76.7978 29.5 76.5Z" fill="#9E9C9B"/>
<path opacity="0.927" fill-rule="evenodd" clip-rule="evenodd" d="M71.5 64.5C77.2343 67.7861 82.7343 71.4527 88 75.5C87.0553 71.1102 88.8887 69.2769 93.5 70C97.215 72.4719 97.8816 75.3052 95.5 78.5C95.8186 76.2495 95.3186 74.2495 94 72.5C92.3148 74.9878 90.9814 74.6545 90 71.5C89.4054 72.8989 89.5721 74.2322 90.5 75.5C88.3345 76.8804 88.0012 78.5471 89.5 80.5C86.8127 80.6641 84.146 80.4974 81.5 80C77.9374 76.7665 74.1041 73.9332 70 71.5C68.2691 72.741 66.4358 73.741 64.5 74.5C62.439 73.2486 62.1057 71.5819 63.5 69.5C64.5 70.1667 65.5 70.8333 66.5 71.5C69.3536 69.9848 71.0202 67.6514 71.5 64.5Z" fill="#C1BFBF"/>
<path fill-rule="evenodd" clip-rule="evenodd" d="M77.5 71.5C79.1688 73.1403 81.1688 74.4737 83.5 75.5C84.8333 76.5 84.8333 77.5 83.5 78.5C81.5 77.1667 79.5 75.8333 77.5 74.5C76.2086 73.4728 76.2086 72.4728 77.5 71.5Z" fill="#7F7E7C"/>
<path opacity="0.678" fill-rule="evenodd" clip-rule="evenodd" d="M61.5 76.5C57.6724 77.498 54.0057 77.498 50.5 76.5C52.5 76.5 54.5 76.5 56.5 76.5C56.1961 73.7673 57.3628 72.1006 60 71.5C61.7618 71.9444 61.5951 72.4444 59.5 73C60.9733 73.7096 61.6399 74.8762 61.5 76.5Z" fill="#AAA7A7"/>
<path fill-rule="evenodd" clip-rule="evenodd" d="M95.5 78.5C94.0101 80.2798 92.0101 80.9465 89.5 80.5C88.0012 78.5471 88.3345 76.8804 90.5 75.5C89.5721 74.2322 89.4054 72.8989 90 71.5C90.9814 74.6545 92.3148 74.9878 94 72.5C95.3186 74.2495 95.8186 76.2495 95.5 78.5Z" fill="#F0F0F0"/>
</svg>
